<mxfile host="app.diagrams.net" modified="2022-04-12T16:45:54.827Z" agent="5.0 (Macintosh; Intel Mac OS X 10_15_7) AppleWebKit/537.36 (KHTML, like Gecko) Chrome/99.0.4844.84 Safari/537.36" etag="tVzTj1xbCm2oXjBF78p4" version="17.4.3" type="github">
  <diagram id="vRsj8aHhziqpxcQap805" name="Page-1">
    <mxGraphModel dx="1761" dy="781" grid="1" gridSize="10" guides="1" tooltips="1" connect="1" arrows="1" fold="1" page="1" pageScale="1" pageWidth="827" pageHeight="1169" math="0" shadow="0">
      <root>
        <mxCell id="0" />
        <mxCell id="1" parent="0" />
        <mxCell id="aIleSDRZTu2M8IpT9ziG-18" value="AWS Cloud" style="points=[[0,0],[0.25,0],[0.5,0],[0.75,0],[1,0],[1,0.25],[1,0.5],[1,0.75],[1,1],[0.75,1],[0.5,1],[0.25,1],[0,1],[0,0.75],[0,0.5],[0,0.25]];outlineConnect=0;gradientColor=none;html=1;whiteSpace=wrap;fontSize=12;fontStyle=0;container=1;pointerEvents=0;collapsible=0;recursiveResize=0;shape=mxgraph.aws4.group;grIcon=mxgraph.aws4.group_aws_cloud_alt;strokeColor=#232F3E;fillColor=none;verticalAlign=top;align=left;spacingLeft=30;fontColor=#232F3E;dashed=0;" vertex="1" parent="1">
          <mxGeometry x="160" y="40" width="1260" height="720" as="geometry" />
        </mxCell>
        <mxCell id="u_Ryx44eEnsJos0oH2SW-31" value="VPC" style="points=[[0,0],[0.25,0],[0.5,0],[0.75,0],[1,0],[1,0.25],[1,0.5],[1,0.75],[1,1],[0.75,1],[0.5,1],[0.25,1],[0,1],[0,0.75],[0,0.5],[0,0.25]];outlineConnect=0;gradientColor=none;html=1;whiteSpace=wrap;fontSize=12;fontStyle=0;container=1;pointerEvents=0;collapsible=0;recursiveResize=0;shape=mxgraph.aws4.group;grIcon=mxgraph.aws4.group_vpc;strokeColor=#248814;fillColor=none;verticalAlign=top;align=left;spacingLeft=30;fontColor=#AAB7B8;dashed=0;" parent="1" vertex="1">
          <mxGeometry x="340" y="90" width="900" height="430" as="geometry" />
        </mxCell>
        <mxCell id="u_Ryx44eEnsJos0oH2SW-23" value="Private subnet" style="points=[[0,0],[0.25,0],[0.5,0],[0.75,0],[1,0],[1,0.25],[1,0.5],[1,0.75],[1,1],[0.75,1],[0.5,1],[0.25,1],[0,1],[0,0.75],[0,0.5],[0,0.25]];outlineConnect=0;gradientColor=none;html=1;whiteSpace=wrap;fontSize=12;fontStyle=0;container=1;pointerEvents=0;collapsible=0;recursiveResize=0;shape=mxgraph.aws4.group;grIcon=mxgraph.aws4.group_security_group;grStroke=0;strokeColor=#147EBA;fillColor=#E6F2F8;verticalAlign=top;align=left;spacingLeft=30;fontColor=#147EBA;dashed=0;" parent="u_Ryx44eEnsJos0oH2SW-31" vertex="1">
          <mxGeometry x="380" y="30" width="480" height="370" as="geometry" />
        </mxCell>
        <mxCell id="u_Ryx44eEnsJos0oH2SW-46" value="" style="sketch=0;points=[[0,0,0],[0.25,0,0],[0.5,0,0],[0.75,0,0],[1,0,0],[0,1,0],[0.25,1,0],[0.5,1,0],[0.75,1,0],[1,1,0],[0,0.25,0],[0,0.5,0],[0,0.75,0],[1,0.25,0],[1,0.5,0],[1,0.75,0]];outlineConnect=0;fontColor=#232F3E;gradientColor=#F78E04;gradientDirection=north;fillColor=#D05C17;strokeColor=#ffffff;dashed=0;verticalLabelPosition=bottom;verticalAlign=top;align=center;html=1;fontSize=12;fontStyle=0;aspect=fixed;shape=mxgraph.aws4.resourceIcon;resIcon=mxgraph.aws4.ecs;" parent="u_Ryx44eEnsJos0oH2SW-23" vertex="1">
          <mxGeometry x="110" y="130" width="78" height="78" as="geometry" />
        </mxCell>
        <mxCell id="u_Ryx44eEnsJos0oH2SW-47" value="http(port:8080)" style="rounded=0;whiteSpace=wrap;html=1;strokeColor=none;gradientColor=#ffffff;fillColor=none;" parent="u_Ryx44eEnsJos0oH2SW-23" vertex="1">
          <mxGeometry x="20" y="158" width="90" height="22" as="geometry" />
        </mxCell>
        <mxCell id="u_Ryx44eEnsJos0oH2SW-55" value="RDS(Postgres)" style="outlineConnect=0;dashed=0;verticalLabelPosition=bottom;verticalAlign=top;align=center;html=1;shape=mxgraph.aws3.rds;fillColor=#2E73B8;gradientColor=none;" parent="u_Ryx44eEnsJos0oH2SW-23" vertex="1">
          <mxGeometry x="330" y="128.5" width="72" height="81" as="geometry" />
        </mxCell>
        <mxCell id="u_Ryx44eEnsJos0oH2SW-56" value="Elastic&lt;br&gt;Container&lt;br&gt;Service" style="rounded=0;whiteSpace=wrap;html=1;strokeColor=none;gradientColor=#ffffff;fillColor=none;" parent="u_Ryx44eEnsJos0oH2SW-23" vertex="1">
          <mxGeometry x="119" y="209.5" width="60" height="50" as="geometry" />
        </mxCell>
        <mxCell id="u_Ryx44eEnsJos0oH2SW-60" value="" style="edgeStyle=orthogonalEdgeStyle;rounded=0;orthogonalLoop=1;jettySize=auto;html=1;exitX=1;exitY=0.5;exitDx=0;exitDy=0;exitPerimeter=0;entryX=0;entryY=0.5;entryDx=0;entryDy=0;entryPerimeter=0;" parent="u_Ryx44eEnsJos0oH2SW-23" source="u_Ryx44eEnsJos0oH2SW-46" target="u_Ryx44eEnsJos0oH2SW-55" edge="1">
          <mxGeometry relative="1" as="geometry">
            <mxPoint x="200" y="168.5" as="sourcePoint" />
            <mxPoint x="250" y="169" as="targetPoint" />
          </mxGeometry>
        </mxCell>
        <mxCell id="aIleSDRZTu2M8IpT9ziG-3" value="" style="shape=image;verticalLabelPosition=bottom;labelBackgroundColor=default;verticalAlign=top;aspect=fixed;imageAspect=0;image=https://www.fastify.io/images/fastify-logo-menu.d13f8da7a965c800.png;" vertex="1" parent="u_Ryx44eEnsJos0oH2SW-23">
          <mxGeometry x="101.88999999999999" y="90" width="98.11" height="30" as="geometry" />
        </mxCell>
        <mxCell id="aIleSDRZTu2M8IpT9ziG-5" value="" style="shape=image;verticalLabelPosition=bottom;labelBackgroundColor=default;verticalAlign=top;aspect=fixed;imageAspect=0;image=https://miro.medium.com/max/1000/1*MdTvC66EwOO3_fzjJmW3tA.png;" vertex="1" parent="u_Ryx44eEnsJos0oH2SW-23">
          <mxGeometry x="200" y="120" width="118.28" height="49.58" as="geometry" />
        </mxCell>
        <mxCell id="u_Ryx44eEnsJos0oH2SW-21" value="Public subnet" style="points=[[0,0],[0.25,0],[0.5,0],[0.75,0],[1,0],[1,0.25],[1,0.5],[1,0.75],[1,1],[0.75,1],[0.5,1],[0.25,1],[0,1],[0,0.75],[0,0.5],[0,0.25]];outlineConnect=0;gradientColor=none;html=1;whiteSpace=wrap;fontSize=12;fontStyle=0;container=1;pointerEvents=0;collapsible=0;recursiveResize=0;shape=mxgraph.aws4.group;grIcon=mxgraph.aws4.group_security_group;grStroke=0;strokeColor=#248814;fillColor=#E9F3E6;verticalAlign=top;align=left;spacingLeft=30;fontColor=#248814;dashed=0;" parent="u_Ryx44eEnsJos0oH2SW-31" vertex="1">
          <mxGeometry x="60" y="30" width="290" height="370" as="geometry" />
        </mxCell>
        <mxCell id="u_Ryx44eEnsJos0oH2SW-24" value="http(port:80)" style="rounded=0;whiteSpace=wrap;html=1;strokeColor=none;gradientColor=#ffffff;fillColor=none;" parent="u_Ryx44eEnsJos0oH2SW-21" vertex="1">
          <mxGeometry x="190" y="158" width="80" height="22" as="geometry" />
        </mxCell>
        <mxCell id="u_Ryx44eEnsJos0oH2SW-18" value="Application&lt;br&gt;Load&lt;br&gt;Balancer" style="rounded=0;whiteSpace=wrap;html=1;strokeColor=none;gradientColor=#ffffff;fillColor=none;" parent="u_Ryx44eEnsJos0oH2SW-21" vertex="1">
          <mxGeometry x="110" y="219" width="60" height="22" as="geometry" />
        </mxCell>
        <mxCell id="u_Ryx44eEnsJos0oH2SW-27" value="" style="outlineConnect=0;dashed=0;verticalLabelPosition=bottom;verticalAlign=top;align=center;html=1;shape=mxgraph.aws3.application_load_balancer;fillColor=#F58534;gradientColor=none;" parent="u_Ryx44eEnsJos0oH2SW-21" vertex="1">
          <mxGeometry x="110.5" y="133" width="69" height="72" as="geometry" />
        </mxCell>
        <mxCell id="u_Ryx44eEnsJos0oH2SW-32" value="https(port:443)" style="rounded=0;whiteSpace=wrap;html=1;strokeColor=none;gradientColor=#ffffff;fillColor=none;" parent="u_Ryx44eEnsJos0oH2SW-21" vertex="1">
          <mxGeometry x="20" y="158" width="86" height="22" as="geometry" />
        </mxCell>
        <mxCell id="u_Ryx44eEnsJos0oH2SW-50" value="" style="edgeStyle=orthogonalEdgeStyle;rounded=0;orthogonalLoop=1;jettySize=auto;html=1;exitX=1;exitY=0.5;exitDx=0;exitDy=0;" parent="u_Ryx44eEnsJos0oH2SW-31" source="u_Ryx44eEnsJos0oH2SW-24" target="u_Ryx44eEnsJos0oH2SW-47" edge="1">
          <mxGeometry relative="1" as="geometry">
            <mxPoint x="330" y="240" as="sourcePoint" />
            <mxPoint x="340" y="239" as="targetPoint" />
          </mxGeometry>
        </mxCell>
        <mxCell id="u_Ryx44eEnsJos0oH2SW-4" value="" style="edgeStyle=orthogonalEdgeStyle;html=1;endArrow=none;elbow=vertical;startArrow=block;startFill=1;strokeColor=#545B64;rounded=0;exitX=0.5;exitY=1;exitDx=0;exitDy=0;" parent="1" source="u_Ryx44eEnsJos0oH2SW-11" target="u_Ryx44eEnsJos0oH2SW-29" edge="1">
          <mxGeometry width="100" relative="1" as="geometry">
            <mxPoint x="217.77" y="360" as="sourcePoint" />
            <mxPoint x="188.77" y="390" as="targetPoint" />
          </mxGeometry>
        </mxCell>
        <mxCell id="u_Ryx44eEnsJos0oH2SW-11" value="Route53" style="rounded=0;whiteSpace=wrap;html=1;strokeColor=none;gradientColor=#ffffff;fillColor=none;" parent="1" vertex="1">
          <mxGeometry x="188.77" y="328" width="80" height="22" as="geometry" />
        </mxCell>
        <mxCell id="u_Ryx44eEnsJos0oH2SW-20" value="" style="edgeStyle=orthogonalEdgeStyle;html=1;endArrow=none;elbow=vertical;startArrow=block;startFill=1;strokeColor=#545B64;rounded=0;exitX=0;exitY=0.5;exitDx=0;exitDy=0;exitPerimeter=0;" parent="1" source="u_Ryx44eEnsJos0oH2SW-28" edge="1">
          <mxGeometry width="100" relative="1" as="geometry">
            <mxPoint x="158.77" y="289" as="sourcePoint" />
            <mxPoint x="88.77" y="289" as="targetPoint" />
          </mxGeometry>
        </mxCell>
        <mxCell id="u_Ryx44eEnsJos0oH2SW-26" value="" style="sketch=0;outlineConnect=0;fontColor=#232F3E;gradientColor=none;fillColor=#232F3D;strokeColor=none;dashed=0;verticalLabelPosition=bottom;verticalAlign=top;align=center;html=1;fontSize=12;fontStyle=0;aspect=fixed;pointerEvents=1;shape=mxgraph.aws4.users;" parent="1" vertex="1">
          <mxGeometry x="8.77" y="250" width="78" height="78" as="geometry" />
        </mxCell>
        <mxCell id="u_Ryx44eEnsJos0oH2SW-33" value="" style="edgeStyle=orthogonalEdgeStyle;rounded=0;orthogonalLoop=1;jettySize=auto;html=1;" parent="1" source="u_Ryx44eEnsJos0oH2SW-28" target="u_Ryx44eEnsJos0oH2SW-32" edge="1">
          <mxGeometry relative="1" as="geometry" />
        </mxCell>
        <mxCell id="u_Ryx44eEnsJos0oH2SW-28" value="" style="sketch=0;points=[[0,0,0],[0.25,0,0],[0.5,0,0],[0.75,0,0],[1,0,0],[0,1,0],[0.25,1,0],[0.5,1,0],[0.75,1,0],[1,1,0],[0,0.25,0],[0,0.5,0],[0,0.75,0],[1,0.25,0],[1,0.5,0],[1,0.75,0]];outlineConnect=0;fontColor=#232F3E;gradientColor=#945DF2;gradientDirection=north;fillColor=#5A30B5;strokeColor=#ffffff;dashed=0;verticalLabelPosition=bottom;verticalAlign=top;align=center;html=1;fontSize=12;fontStyle=0;aspect=fixed;shape=mxgraph.aws4.resourceIcon;resIcon=mxgraph.aws4.route_53;" parent="1" vertex="1">
          <mxGeometry x="188.77" y="250" width="78" height="78" as="geometry" />
        </mxCell>
        <mxCell id="u_Ryx44eEnsJos0oH2SW-29" value="&lt;span style=&quot;color: rgb(0 , 0 , 0)&quot;&gt;AWS&lt;br&gt;Certificate&lt;br&gt;Manager&lt;/span&gt;" style="sketch=0;points=[[0,0,0],[0.25,0,0],[0.5,0,0],[0.75,0,0],[1,0,0],[0,1,0],[0.25,1,0],[0.5,1,0],[0.75,1,0],[1,1,0],[0,0.25,0],[0,0.5,0],[0,0.75,0],[1,0.25,0],[1,0.5,0],[1,0.75,0]];outlineConnect=0;fontColor=#232F3E;gradientColor=#F54749;gradientDirection=north;fillColor=#C7131F;strokeColor=#ffffff;dashed=0;verticalLabelPosition=bottom;verticalAlign=top;align=center;html=1;fontSize=12;fontStyle=0;aspect=fixed;shape=mxgraph.aws4.resourceIcon;resIcon=mxgraph.aws4.certificate_manager_3;" parent="1" vertex="1">
          <mxGeometry x="189.77" y="400" width="78" height="78" as="geometry" />
        </mxCell>
        <mxCell id="u_Ryx44eEnsJos0oH2SW-48" style="edgeStyle=orthogonalEdgeStyle;rounded=0;orthogonalLoop=1;jettySize=auto;html=1;exitX=0.5;exitY=1;exitDx=0;exitDy=0;" parent="1" edge="1">
          <mxGeometry relative="1" as="geometry">
            <mxPoint x="865.5" y="520" as="sourcePoint" />
            <mxPoint x="865.5" y="520" as="targetPoint" />
          </mxGeometry>
        </mxCell>
        <mxCell id="u_Ryx44eEnsJos0oH2SW-57" value="https://xxxx" style="rounded=0;whiteSpace=wrap;html=1;strokeColor=none;gradientColor=#ffffff;fillColor=none;" parent="1" vertex="1">
          <mxGeometry x="88.77" y="260" width="80" height="22" as="geometry" />
        </mxCell>
        <mxCell id="u_Ryx44eEnsJos0oH2SW-66" value="Internet&#xa;gateway" style="sketch=0;outlineConnect=0;fontColor=#232F3E;gradientColor=none;strokeColor=#232F3E;fillColor=#ffffff;dashed=0;verticalLabelPosition=bottom;verticalAlign=top;align=center;html=1;fontSize=12;fontStyle=0;aspect=fixed;shape=mxgraph.aws4.resourceIcon;resIcon=mxgraph.aws4.internet_gateway;" parent="1" vertex="1">
          <mxGeometry x="308.77" y="259" width="60" height="60" as="geometry" />
        </mxCell>
        <mxCell id="u_Ryx44eEnsJos0oH2SW-70" value="&lt;span style=&quot;color: rgb(0 , 0 , 0)&quot;&gt;Elastic&lt;/span&gt;&lt;br style=&quot;color: rgb(0 , 0 , 0)&quot;&gt;&lt;span style=&quot;color: rgb(0 , 0 , 0)&quot;&gt;Registry&lt;/span&gt;&lt;br style=&quot;color: rgb(0 , 0 , 0)&quot;&gt;&lt;span style=&quot;color: rgb(0 , 0 , 0)&quot;&gt;Service&lt;/span&gt;" style="sketch=0;points=[[0,0,0],[0.25,0,0],[0.5,0,0],[0.75,0,0],[1,0,0],[0,1,0],[0.25,1,0],[0.5,1,0],[0.75,1,0],[1,1,0],[0,0.25,0],[0,0.5,0],[0,0.75,0],[1,0.25,0],[1,0.5,0],[1,0.75,0]];outlineConnect=0;fontColor=#232F3E;gradientColor=#F78E04;gradientDirection=north;fillColor=#D05C17;strokeColor=#ffffff;dashed=0;verticalLabelPosition=bottom;verticalAlign=top;align=center;html=1;fontSize=12;fontStyle=0;aspect=fixed;shape=mxgraph.aws4.resourceIcon;resIcon=mxgraph.aws4.ecr;" parent="1" vertex="1">
          <mxGeometry x="923" y="600" width="78" height="78" as="geometry" />
        </mxCell>
        <mxCell id="u_Ryx44eEnsJos0oH2SW-72" value="" style="sketch=0;outlineConnect=0;fontColor=#232F3E;gradientColor=none;fillColor=#232F3D;strokeColor=none;dashed=0;verticalLabelPosition=bottom;verticalAlign=top;align=center;html=1;fontSize=12;fontStyle=0;aspect=fixed;pointerEvents=1;shape=mxgraph.aws4.user;" parent="1" vertex="1">
          <mxGeometry x="1163" y="600" width="78" height="78" as="geometry" />
        </mxCell>
        <mxCell id="u_Ryx44eEnsJos0oH2SW-73" value="" style="sketch=0;outlineConnect=0;fontColor=#232F3E;gradientColor=none;fillColor=#232F3D;strokeColor=none;dashed=0;verticalLabelPosition=bottom;verticalAlign=top;align=center;html=1;fontSize=12;fontStyle=0;aspect=fixed;pointerEvents=1;shape=mxgraph.aws4.client;" parent="1" vertex="1">
          <mxGeometry x="1076" y="601" width="78" height="76" as="geometry" />
        </mxCell>
        <mxCell id="u_Ryx44eEnsJos0oH2SW-74" value="" style="edgeStyle=orthogonalEdgeStyle;rounded=0;orthogonalLoop=1;jettySize=auto;html=1;entryX=1;entryY=0.5;entryDx=0;entryDy=0;entryPerimeter=0;" parent="1" source="u_Ryx44eEnsJos0oH2SW-73" target="u_Ryx44eEnsJos0oH2SW-70" edge="1">
          <mxGeometry relative="1" as="geometry">
            <mxPoint x="511" y="649" as="sourcePoint" />
            <mxPoint x="423" y="640" as="targetPoint" />
          </mxGeometry>
        </mxCell>
        <mxCell id="u_Ryx44eEnsJos0oH2SW-77" value="S3" style="sketch=0;points=[[0,0,0],[0.25,0,0],[0.5,0,0],[0.75,0,0],[1,0,0],[0,1,0],[0.25,1,0],[0.5,1,0],[0.75,1,0],[1,1,0],[0,0.25,0],[0,0.5,0],[0,0.75,0],[1,0.25,0],[1,0.5,0],[1,0.75,0]];outlineConnect=0;fontColor=#232F3E;gradientColor=#60A337;gradientDirection=north;fillColor=#277116;strokeColor=#ffffff;dashed=0;verticalLabelPosition=bottom;verticalAlign=top;align=center;html=1;fontSize=12;fontStyle=0;aspect=fixed;shape=mxgraph.aws4.resourceIcon;resIcon=mxgraph.aws4.s3;" parent="1" vertex="1">
          <mxGeometry x="190" y="600" width="78" height="78" as="geometry" />
        </mxCell>
        <mxCell id="u_Ryx44eEnsJos0oH2SW-86" value="" style="edgeStyle=orthogonalEdgeStyle;rounded=0;orthogonalLoop=1;jettySize=auto;html=1;exitX=0.25;exitY=1;exitDx=0;exitDy=0;entryX=1;entryY=0.5;entryDx=0;entryDy=0;entryPerimeter=0;" parent="1" source="u_Ryx44eEnsJos0oH2SW-56" target="u_Ryx44eEnsJos0oH2SW-77" edge="1">
          <mxGeometry relative="1" as="geometry">
            <mxPoint x="908" y="289" as="sourcePoint" />
            <mxPoint x="970" y="289" as="targetPoint" />
          </mxGeometry>
        </mxCell>
        <mxCell id="u_Ryx44eEnsJos0oH2SW-87" value="" style="edgeStyle=orthogonalEdgeStyle;rounded=0;orthogonalLoop=1;jettySize=auto;html=1;exitX=0;exitY=0.5;exitDx=0;exitDy=0;exitPerimeter=0;entryX=0.75;entryY=1;entryDx=0;entryDy=0;" parent="1" source="u_Ryx44eEnsJos0oH2SW-70" target="u_Ryx44eEnsJos0oH2SW-56" edge="1">
          <mxGeometry relative="1" as="geometry">
            <mxPoint x="956" y="430" as="sourcePoint" />
            <mxPoint x="410" y="680" as="targetPoint" />
          </mxGeometry>
        </mxCell>
        <mxCell id="aIleSDRZTu2M8IpT9ziG-14" value="" style="shape=image;verticalLabelPosition=bottom;labelBackgroundColor=default;verticalAlign=top;aspect=fixed;imageAspect=0;image=https://upload.wikimedia.org/wikipedia/commons/4/49/Redux.png;" vertex="1" parent="1">
          <mxGeometry x="301" y="560" width="67.77" height="53" as="geometry" />
        </mxCell>
        <mxCell id="aIleSDRZTu2M8IpT9ziG-16" value="" style="shape=image;verticalLabelPosition=bottom;labelBackgroundColor=default;verticalAlign=top;aspect=fixed;imageAspect=0;image=https://upload.wikimedia.org/wikipedia/commons/thumb/a/a7/React-icon.svg/1200px-React-icon.svg.png;" vertex="1" parent="1">
          <mxGeometry x="266.28" y="563" width="43.72" height="38" as="geometry" />
        </mxCell>
      </root>
    </mxGraphModel>
  </diagram>
</mxfile>
